<svg width="49" height="49" viewBox="0 0 49 49" fill="none" xmlns="http://www.w3.org/2000/svg">
<path d="M38.7072 39.2C36.0219 39.2 33.8688 41.3805 33.8688 44.1C33.8688 45.3996 34.3786 46.6459 35.2859 47.5648C36.1933 48.4838 37.424 49 38.7072 49C39.9904 49 41.2211 48.4838 42.1285 47.5648C43.0358 46.6459 43.5456 45.3996 43.5456 44.1C43.5456 42.8004 43.0358 41.5541 42.1285 40.6352C41.2211 39.7162 39.9904 39.2 38.7072 39.2ZM0 0V4.9H4.8384L13.5475 23.4955L10.2574 29.498C9.89453 30.184 9.6768 30.9925 9.6768 31.85C9.6768 33.1496 10.1866 34.3959 11.0939 35.3148C12.0013 36.2338 13.232 36.75 14.5152 36.75H43.5456V31.85H15.5313C15.3709 31.85 15.217 31.7855 15.1036 31.6706C14.9902 31.5557 14.9265 31.3999 14.9265 31.2375C14.9265 31.115 14.9507 31.017 14.999 30.9435L17.1763 26.95H35.1994C37.0138 26.95 38.6104 25.921 39.433 24.4265L48.0937 8.575C48.263 8.183 48.384 7.7665 48.384 7.35C48.384 6.70022 48.1291 6.07705 47.6754 5.61759C47.2217 5.15812 46.6064 4.9 45.9648 4.9H10.1848L7.91078 0M14.5152 39.2C11.8299 39.2 9.6768 41.3805 9.6768 44.1C9.6768 45.3996 10.1866 46.6459 11.0939 47.5648C12.0013 48.4838 13.232 49 14.5152 49C15.7984 49 17.0291 48.4838 17.9365 47.5648C18.8438 46.6459 19.3536 45.3996 19.3536 44.1C19.3536 42.8004 18.8438 41.5541 17.9365 40.6352C17.0291 39.7162 15.7984 39.2 14.5152 39.2Z" fill="#FFF7F7"/>
</svg>
