<svg width="49" height="49" viewBox="0 0 49 49" fill="none" xmlns="http://www.w3.org/2000/svg">
<path d="M39.2 39.2C36.4805 39.2 34.3 41.3805 34.3 44.1C34.3 45.3996 34.8163 46.6459 35.7352 47.5648C36.6541 48.4838 37.9004 49 39.2 49C40.4996 49 41.7459 48.4838 42.6648 47.5648C43.5837 46.6459 44.1 45.3996 44.1 44.1C44.1 42.8004 43.5837 41.5541 42.6648 40.6352C41.7459 39.7162 40.4996 39.2 39.2 39.2ZM0 0V4.9H4.9L13.72 23.4955L10.388 29.498C10.0205 30.184 9.8 30.9925 9.8 31.85C9.8 33.1496 10.3162 34.3959 11.2352 35.3148C12.1541 36.2338 13.4004 36.75 14.7 36.75H44.1V31.85H15.729C15.5666 31.85 15.4108 31.7855 15.2959 31.6706C15.181 31.5557 15.1165 31.3999 15.1165 31.2375C15.1165 31.115 15.141 31.017 15.19 30.9435L17.395 26.95H35.6475C37.485 26.95 39.102 25.921 39.935 24.4265L48.706 8.575C48.8775 8.183 49 7.7665 49 7.35C49 6.70022 48.7419 6.07705 48.2824 5.61759C47.8229 5.15812 47.1998 4.9 46.55 4.9H10.3145L8.0115 0M14.7 39.2C11.9805 39.2 9.8 41.3805 9.8 44.1C9.8 45.3996 10.3162 46.6459 11.2352 47.5648C12.1541 48.4838 13.4004 49 14.7 49C15.9996 49 17.2459 48.4838 18.1648 47.5648C19.0838 46.6459 19.6 45.3996 19.6 44.1C19.6 42.8004 19.0838 41.5541 18.1648 40.6352C17.2459 39.7162 15.9996 39.2 14.7 39.2Z" fill="#1230AE"/>
</svg>
